<svg xmlns="http://www.w3.org/2000/svg" viewBox="0 0 472.47 327.34"><defs><style>.cls-1{fill:#f8da7e;}.cls-2{fill:#faf17a;}.cls-3{fill:#f6c581;}.cls-4{fill:#f3af81;}.cls-5{fill:#f29a80;}.cls-6{fill:#f1847f;}.cls-7{fill:#ef5278;}.cls-8{fill:#f06e7c;}</style></defs><title>Asset 2</title><g id="Layer_2" data-name="Layer 2"><g id="Layer_1-2" data-name="Layer 1"><polygon class="cls-1" points="283.48 0 307.11 40.92 330.73 81.83 283.48 81.83 236.24 81.83 259.86 40.92 283.48 0"/><polygon class="cls-1" points="188.99 0 212.61 40.92 236.24 81.83 188.99 81.83 141.74 81.83 165.37 40.92 188.99 0"/><polygon class="cls-2" points="236.24 81.83 212.61 40.92 188.99 0 236.24 0 283.48 0 259.86 40.92 236.24 81.83"/><polygon class="cls-3" points="283.48 163.67 259.86 122.75 236.24 81.83 283.48 81.83 330.73 81.83 307.11 122.75 283.48 163.67"/><polygon class="cls-3" points="188.99 163.67 165.37 122.75 141.74 81.83 188.99 81.83 236.24 81.83 212.61 122.75 188.99 163.67"/><polygon class="cls-4" points="141.74 81.83 165.37 122.75 188.99 163.67 141.74 163.67 94.49 163.67 118.12 122.75 141.74 81.83"/><polygon class="cls-5" points="141.74 245.5 118.12 204.59 94.49 163.67 141.74 163.67 188.99 163.67 165.37 204.59 141.74 245.5"/><polygon class="cls-6" points="94.49 163.67 118.12 204.59 141.74 245.5 94.49 245.5 47.25 245.5 70.87 204.59 94.49 163.67"/><polygon class="cls-4" points="330.73 81.83 354.35 122.75 377.98 163.67 330.73 163.67 283.48 163.67 307.11 122.75 330.73 81.83"/><polygon class="cls-5" points="330.73 245.5 307.11 204.59 283.48 163.67 330.73 163.67 377.98 163.67 354.35 204.59 330.73 245.5"/><polygon class="cls-6" points="377.98 163.67 401.6 204.59 425.22 245.5 377.98 245.5 330.73 245.5 354.35 204.59 377.98 163.67"/><polygon class="cls-6" points="283.48 163.67 307.11 204.59 330.73 245.5 283.48 245.5 236.24 245.5 259.86 204.59 283.48 163.67"/><polygon class="cls-6" points="188.99 163.67 212.61 204.59 236.24 245.5 188.99 245.5 141.74 245.5 165.37 204.59 188.99 163.67"/><polygon class="cls-5" points="236.24 245.5 212.61 204.59 188.99 163.67 236.24 163.67 283.48 163.67 259.86 204.59 236.24 245.5"/><polygon class="cls-7" points="47.25 245.5 70.87 286.42 94.49 327.34 47.25 327.34 0 327.34 23.62 286.42 47.25 245.5"/><polygon class="cls-8" points="94.49 327.34 70.87 286.42 47.25 245.5 94.49 245.5 141.74 245.5 118.12 286.42 94.49 327.34"/><polygon class="cls-7" points="425.22 245.5 448.85 286.42 472.47 327.34 425.22 327.34 377.98 327.34 401.6 286.42 425.22 245.5"/><polygon class="cls-8" points="377.98 327.34 354.35 286.42 330.73 245.5 377.98 245.5 425.22 245.5 401.6 286.42 377.98 327.34"/></g></g></svg>